<svg width="167" height="40" viewBox="0 0 167 40" fill="none" xmlns="http://www.w3.org/2000/svg">
<path d="M21.401 0H16.7633L23.7198 6.8599L24.9275 5.84541L21.401 0Z" fill="#FEB100"/>
<path d="M28.7923 3.86473L27.343 4.44444L24.686 0H27.8261L28.7923 3.86473Z" fill="#FEB100"/>
<path d="M33.1401 2.89855L31.5942 3.18841L30.628 0H33.1401V2.89855Z" fill="#FEB100"/>
<path d="M37.4879 3.18841L35.8937 2.89855V0H38.4058L37.4879 3.18841Z" fill="#FEB100"/>
<path d="M41.5459 4.44444L40.2415 3.86473L41.2077 0H44.2995L41.5459 4.44444Z" fill="#FEB100"/>
<path d="M45.2657 6.8599L44.058 5.84541L47.4879 0H52.2705L45.2657 6.8599Z" fill="#FEB100"/>
<path d="M47.343 8.84058L48.3575 10.1449L53.43 7.19807V2.89855L47.343 8.84058Z" fill="#FEB100"/>
<path d="M53.43 10.3865L51.0145 11.9324H53.43V10.3865Z" fill="#FEB100"/>
<path d="M18.2609 15.7971L15.5072 14.8792V10.3865L19.3237 12.6087L18.2609 15.7971Z" fill="#FEB100"/>
<path d="M26.6184 20L21.0628 17.1014C22.8986 5.36232 38.9372 1.0628 46.2802 12.6087L26.6184 20Z" fill="#FEB100"/>
<path d="M37.1498 40H32.4638C27.5574 33.4883 23.8539 30.6674 15.4589 27.1498V22.9952C26.9455 27.4733 31.194 31.5558 37.1498 40Z" fill="#FEB100"/>
<path d="M15.5072 18.744V14.8792C19.7297 15.9178 22.1444 16.9311 26.5217 19.372C36.6743 13.9373 42.611 12.2887 53.5749 11.7874V15.6522C43.2996 16.3231 38.2029 17.6717 30.1932 21.7874L33.913 24.686C40.9756 21.3352 45.3282 20.5312 53.5749 20.0483V23.8164C46.3319 24.2435 42.6778 25.0307 36.9565 27.5362L40 30.9662C44.6894 28.8925 47.6943 28.2821 53.5749 27.971V31.8358C48.5848 32.135 46.1139 32.6496 42.2222 34.1063L44.4928 37.7778C47.4729 36.5983 49.5235 36.2481 53.5749 35.942V39.9517H41.3043C35.1208 28.6474 27.343 22.7536 15.5072 18.744Z" fill="white"/>
<path d="M26.8599 39.9517H21.4976C19.3857 37.984 18.1419 36.9765 15.5072 35.8454V31.5459C19.8068 33.3333 24.0097 36.4251 26.8599 39.9517Z" fill="white"/>
<path d="M17.8261 8.30918C20 9.75846 20.6391 11.0219 21.7391 12.7536C19.889 7.25053 14.6845 4.07681 8.64198 4.74218C8.5457 4.75278 8.49775 4.64045 8.58058 4.59023C10.5682 3.38512 15.7591 3.96934 18.8889 7.05314C13.3333 -0.869565 5.12077 -0.483093 0 6.47343C7.63285 11.5942 13.913 11.4976 17.8261 8.30918Z" fill="white"/>
<path d="M66.4786 31.2742H61.1876V17.1772H58.6716V13.1442H61.1876V12.7002C61.1876 8.77817 63.5186 6.11417 67.8476 6.11417C70.2526 6.11417 71.9916 7.15017 72.8426 7.89017L71.0296 11.6642C70.3636 10.8502 69.4016 10.1842 68.2916 10.1842C67.0336 10.1842 66.4786 10.8872 66.4786 12.0712V13.1442H71.0296V17.1772H66.4786V31.2742ZM77.2207 31.6812C74.4087 31.6812 72.4477 30.1642 72.4477 27.2412C72.4477 24.5032 74.1867 22.9122 77.6277 21.7282L83.1777 19.6562C82.9927 18.1392 82.2897 17.2882 80.2917 17.2882C77.9977 17.2882 75.8887 18.5832 74.6307 20.3962L71.9667 16.5482C73.7797 14.5872 76.7767 12.7742 80.6617 12.7742C85.2497 12.7742 87.9137 15.2162 87.9137 19.7672V25.9832C87.9137 26.7972 88.2097 27.0562 88.8757 27.0562H89.9487V31.2742H86.8407C84.8797 31.2742 83.1037 30.3862 83.1037 27.7962V26.5752C82.5117 28.9432 80.9207 31.6812 77.2207 31.6812ZM77.3317 26.4642C77.3317 27.3152 77.9237 27.7962 79.1817 27.7962C81.6977 27.7962 83.1037 26.5382 83.1037 24.3182V23.0602L79.2557 24.6512C77.8127 25.2432 77.3317 25.7612 77.3317 26.4642ZM97.7401 31.2742H92.4491V13.1442H97.7401V18.8422C98.3321 15.8082 100.108 12.7742 103.586 12.7742C106.25 12.7742 107.73 14.4762 107.73 17.3252C107.73 19.2862 107.138 20.8402 106.694 21.5432H101.588C102.254 20.8772 102.883 19.5822 102.883 18.5462C102.883 17.5102 102.402 16.7332 101.255 16.7332C99.4421 16.7332 97.7401 18.6942 97.7401 21.6912V31.2742ZM114.975 31.2742H109.684V13.1442H114.975V18.3612C115.53 15.4012 117.158 12.7742 120.895 12.7742C124.225 12.7742 126.075 14.8832 126.075 18.3982C126.63 15.4012 128.258 12.7742 131.995 12.7742C135.325 12.7742 137.175 14.8832 137.175 18.6202V31.2742H131.884V20.4702C131.884 18.1022 131.144 16.8812 128.998 16.8812C126.889 16.8812 126.075 18.2872 126.075 21.2472V31.2742H120.784V20.4702C120.784 18.1022 120.044 16.8812 117.898 16.8812C115.789 16.8812 114.975 18.2872 114.975 21.2472V31.2742ZM146.086 10.9982H140.795V6.48417H146.086V10.9982ZM146.086 31.2742H140.795V13.1442H146.086V31.2742ZM165.516 31.2742H148.94V27.3892L155.23 20.5072L159.115 17.1772L153.75 17.4362H149.458V13.1442H165.146V17.0292L158.745 23.5782L154.638 27.2042L160.225 26.9822H165.516V31.2742Z" fill="white"/>
</svg>
